<mxfile host="Electron" agent="Mozilla/5.0 (Macintosh; Intel Mac OS X 10_15_7) AppleWebKit/537.36 (KHTML, like Gecko) draw.io/26.0.16 Chrome/132.0.6834.196 Electron/34.2.0 Safari/537.36" version="26.0.16">
  <diagram name="第 1 页" id="dykCiLa8a4DSkGjc4B6P">
    <mxGraphModel dx="1033" dy="923" grid="1" gridSize="10" guides="1" tooltips="1" connect="1" arrows="1" fold="1" page="1" pageScale="1" pageWidth="1169" pageHeight="827" math="0" shadow="0">
      <root>
        <mxCell id="0" />
        <mxCell id="1" parent="0" />
        <mxCell id="22nm3eZFs8TaVSW6O3Qv-88" value="" style="rounded=1;whiteSpace=wrap;html=1;fillColor=light-dark(#eaf1fb, #1d293b);strokeColor=#6c8ebf;" vertex="1" parent="1">
          <mxGeometry x="100" y="164" width="640" height="290" as="geometry" />
        </mxCell>
        <mxCell id="22nm3eZFs8TaVSW6O3Qv-92" value="" style="rounded=1;whiteSpace=wrap;html=1;fillColor=light-dark(#fdf0e3, #36210a);strokeColor=#d79b00;fillStyle=auto;" vertex="1" parent="1">
          <mxGeometry x="130" y="485.13" width="120" height="63.74" as="geometry" />
        </mxCell>
        <mxCell id="22nm3eZFs8TaVSW6O3Qv-91" value="" style="rounded=1;whiteSpace=wrap;html=1;fillColor=light-dark(#e9f2e8, #1f2f1e);strokeColor=#82b366;fillStyle=auto;" vertex="1" parent="1">
          <mxGeometry x="340" y="470" width="430" height="180" as="geometry" />
        </mxCell>
        <mxCell id="22nm3eZFs8TaVSW6O3Qv-89" value="" style="rounded=1;whiteSpace=wrap;html=1;fillColor=light-dark(#fbeeee, #512d2b);strokeColor=light-dark(#9d423f, #d7817e);fillStyle=auto;gradientColor=none;" vertex="1" parent="1">
          <mxGeometry x="750" y="164" width="160" height="298" as="geometry" />
        </mxCell>
        <mxCell id="22nm3eZFs8TaVSW6O3Qv-1" value="&lt;font style=&quot;font-size: 14px;&quot;&gt;&lt;b&gt;Spawn-CGI&lt;/b&gt;&lt;/font&gt;" style="rounded=0;whiteSpace=wrap;html=1;strokeWidth=2;fillColor=#dae8fc;strokeColor=#6c8ebf;" vertex="1" parent="1">
          <mxGeometry x="140" y="300" width="100" height="50" as="geometry" />
        </mxCell>
        <mxCell id="22nm3eZFs8TaVSW6O3Qv-2" value="&lt;font style=&quot;font-size: 14px;&quot;&gt;&lt;b&gt;Nginx&lt;/b&gt;&lt;/font&gt;" style="rounded=0;whiteSpace=wrap;html=1;strokeWidth=2;fillColor=#ffe6cc;strokeColor=#d79b00;" vertex="1" parent="1">
          <mxGeometry x="140" y="492" width="100" height="50" as="geometry" />
        </mxCell>
        <mxCell id="22nm3eZFs8TaVSW6O3Qv-3" value="&lt;font style=&quot;font-size: 14px;&quot;&gt;&lt;b&gt;Client&lt;/b&gt;&lt;/font&gt;&lt;div&gt;&lt;font style=&quot;font-size: 14px;&quot;&gt;&lt;b&gt;Application&lt;/b&gt;&lt;/font&gt;&lt;/div&gt;" style="rounded=0;whiteSpace=wrap;html=1;strokeWidth=2;fillColor=#fff2cc;strokeColor=#d6b656;" vertex="1" parent="1">
          <mxGeometry x="140" y="600" width="100" height="50" as="geometry" />
        </mxCell>
        <mxCell id="22nm3eZFs8TaVSW6O3Qv-4" value="&lt;font style=&quot;font-size: 14px;&quot;&gt;&lt;b&gt;FastCGI&lt;/b&gt;&lt;/font&gt;" style="rounded=0;whiteSpace=wrap;html=1;strokeWidth=2;fillColor=#dae8fc;strokeColor=#6c8ebf;" vertex="1" parent="1">
          <mxGeometry x="310" y="210" width="60" height="230" as="geometry" />
        </mxCell>
        <mxCell id="22nm3eZFs8TaVSW6O3Qv-5" value="&lt;font&gt;CGI&lt;/font&gt;&lt;div&gt;&lt;font&gt;&lt;i&gt;Register&lt;/i&gt;&lt;/font&gt;&lt;/div&gt;" style="rounded=0;whiteSpace=wrap;html=1;strokeWidth=2;fillColor=#dae8fc;strokeColor=#6c8ebf;fontSize=13;" vertex="1" parent="1">
          <mxGeometry x="460" y="210" width="80" height="40" as="geometry" />
        </mxCell>
        <mxCell id="22nm3eZFs8TaVSW6O3Qv-6" value="&lt;font&gt;CGI&lt;/font&gt;&lt;div&gt;&lt;span&gt;&lt;i&gt;Login&lt;/i&gt;&lt;/span&gt;&lt;/div&gt;" style="rounded=0;whiteSpace=wrap;html=1;strokeWidth=2;fillColor=#dae8fc;strokeColor=#6c8ebf;fontSize=13;" vertex="1" parent="1">
          <mxGeometry x="460" y="274" width="80" height="40" as="geometry" />
        </mxCell>
        <mxCell id="22nm3eZFs8TaVSW6O3Qv-7" value="&lt;font&gt;CGI&lt;/font&gt;&lt;div&gt;&lt;span&gt;&lt;i&gt;Upload File&lt;/i&gt;&lt;/span&gt;&lt;/div&gt;" style="rounded=0;whiteSpace=wrap;html=1;strokeWidth=2;fillColor=#dae8fc;strokeColor=#6c8ebf;fontSize=13;" vertex="1" parent="1">
          <mxGeometry x="460" y="338" width="80" height="40" as="geometry" />
        </mxCell>
        <mxCell id="22nm3eZFs8TaVSW6O3Qv-8" value="&lt;font&gt;CGI&lt;/font&gt;&lt;div&gt;&lt;i&gt;Download File&lt;/i&gt;&lt;/div&gt;" style="rounded=0;whiteSpace=wrap;html=1;strokeWidth=2;fillColor=#dae8fc;strokeColor=#6c8ebf;fontSize=13;" vertex="1" parent="1">
          <mxGeometry x="600" y="394" width="100" height="40" as="geometry" />
        </mxCell>
        <mxCell id="22nm3eZFs8TaVSW6O3Qv-9" value="" style="endArrow=classic;html=1;rounded=0;endSize=6;strokeWidth=2;fillColor=#ffe6cc;strokeColor=#d79b00;" edge="1" parent="1">
          <mxGeometry width="50" height="50" relative="1" as="geometry">
            <mxPoint x="210" y="352" as="sourcePoint" />
            <mxPoint x="210" y="492" as="targetPoint" />
          </mxGeometry>
        </mxCell>
        <mxCell id="22nm3eZFs8TaVSW6O3Qv-10" value="" style="endArrow=classic;html=1;rounded=0;endSize=6;strokeWidth=2;entryX=0.699;entryY=-0.037;entryDx=0;entryDy=0;entryPerimeter=0;" edge="1" parent="1">
          <mxGeometry width="50" height="50" relative="1" as="geometry">
            <mxPoint x="220" y="542" as="sourcePoint" />
            <mxPoint x="219.89999999999986" y="598.1500000000001" as="targetPoint" />
          </mxGeometry>
        </mxCell>
        <mxCell id="22nm3eZFs8TaVSW6O3Qv-11" value="" style="endArrow=classic;html=1;rounded=0;endSize=6;strokeWidth=2;exitX=0.306;exitY=-0.051;exitDx=0;exitDy=0;exitPerimeter=0;" edge="1" parent="1">
          <mxGeometry width="50" height="50" relative="1" as="geometry">
            <mxPoint x="159.5999999999999" y="597.45" as="sourcePoint" />
            <mxPoint x="159" y="542" as="targetPoint" />
          </mxGeometry>
        </mxCell>
        <mxCell id="22nm3eZFs8TaVSW6O3Qv-22" value="" style="endArrow=classic;html=1;rounded=0;endSize=6;strokeWidth=2;entryX=0;entryY=0.25;entryDx=0;entryDy=0;fillColor=#dae8fc;strokeColor=#6c8ebf;" edge="1" parent="1" target="22nm3eZFs8TaVSW6O3Qv-5">
          <mxGeometry width="50" height="50" relative="1" as="geometry">
            <mxPoint x="370" y="220" as="sourcePoint" />
            <mxPoint x="450" y="220" as="targetPoint" />
          </mxGeometry>
        </mxCell>
        <mxCell id="22nm3eZFs8TaVSW6O3Qv-23" value="" style="endArrow=none;html=1;rounded=0;endSize=6;strokeWidth=2;entryX=0;entryY=0.25;entryDx=0;entryDy=0;startArrow=classic;startFill=1;endFill=1;fillColor=#dae8fc;strokeColor=#6c8ebf;" edge="1" parent="1">
          <mxGeometry width="50" height="50" relative="1" as="geometry">
            <mxPoint x="370" y="240" as="sourcePoint" />
            <mxPoint x="460" y="240" as="targetPoint" />
          </mxGeometry>
        </mxCell>
        <mxCell id="22nm3eZFs8TaVSW6O3Qv-24" value="" style="endArrow=classic;html=1;rounded=0;endSize=6;strokeWidth=2;entryX=0;entryY=0.25;entryDx=0;entryDy=0;fillColor=#dae8fc;strokeColor=#6c8ebf;" edge="1" parent="1">
          <mxGeometry width="50" height="50" relative="1" as="geometry">
            <mxPoint x="370" y="283.71" as="sourcePoint" />
            <mxPoint x="460" y="283.71" as="targetPoint" />
          </mxGeometry>
        </mxCell>
        <mxCell id="22nm3eZFs8TaVSW6O3Qv-25" value="" style="endArrow=none;html=1;rounded=0;endSize=6;strokeWidth=2;entryX=0;entryY=0.25;entryDx=0;entryDy=0;startArrow=classic;startFill=1;endFill=1;fillColor=#dae8fc;strokeColor=#6c8ebf;" edge="1" parent="1">
          <mxGeometry width="50" height="50" relative="1" as="geometry">
            <mxPoint x="370" y="303.71" as="sourcePoint" />
            <mxPoint x="460" y="303.71" as="targetPoint" />
          </mxGeometry>
        </mxCell>
        <mxCell id="22nm3eZFs8TaVSW6O3Qv-26" value="" style="endArrow=classic;html=1;rounded=0;endSize=6;strokeWidth=2;entryX=0;entryY=0.25;entryDx=0;entryDy=0;fillColor=#dae8fc;strokeColor=#6c8ebf;" edge="1" parent="1">
          <mxGeometry width="50" height="50" relative="1" as="geometry">
            <mxPoint x="370" y="347.71" as="sourcePoint" />
            <mxPoint x="460" y="347.71" as="targetPoint" />
          </mxGeometry>
        </mxCell>
        <mxCell id="22nm3eZFs8TaVSW6O3Qv-27" value="" style="endArrow=none;html=1;rounded=0;endSize=6;strokeWidth=2;entryX=0;entryY=0.25;entryDx=0;entryDy=0;startArrow=classic;startFill=1;endFill=1;fillColor=#dae8fc;strokeColor=#6c8ebf;" edge="1" parent="1">
          <mxGeometry width="50" height="50" relative="1" as="geometry">
            <mxPoint x="370" y="367.71" as="sourcePoint" />
            <mxPoint x="460" y="367.71" as="targetPoint" />
          </mxGeometry>
        </mxCell>
        <mxCell id="22nm3eZFs8TaVSW6O3Qv-28" value="" style="endArrow=classic;html=1;rounded=0;endSize=6;strokeWidth=2;entryX=0;entryY=0.25;entryDx=0;entryDy=0;fillColor=#f8cecc;strokeColor=#b85450;" edge="1" parent="1">
          <mxGeometry width="50" height="50" relative="1" as="geometry">
            <mxPoint x="545" y="218.65" as="sourcePoint" />
            <mxPoint x="775" y="219.65" as="targetPoint" />
          </mxGeometry>
        </mxCell>
        <mxCell id="22nm3eZFs8TaVSW6O3Qv-29" value="" style="endArrow=none;html=1;rounded=0;endSize=6;strokeWidth=2;entryX=0;entryY=0.75;entryDx=0;entryDy=0;startArrow=classic;startFill=1;endFill=1;fillColor=#f8cecc;strokeColor=#b85450;" edge="1" parent="1">
          <mxGeometry width="50" height="50" relative="1" as="geometry">
            <mxPoint x="545" y="227.65" as="sourcePoint" />
            <mxPoint x="775" y="228.65" as="targetPoint" />
          </mxGeometry>
        </mxCell>
        <mxCell id="22nm3eZFs8TaVSW6O3Qv-32" value="&lt;font style=&quot;font-size: 14px;&quot;&gt;Trackers&lt;/font&gt;" style="rounded=0;whiteSpace=wrap;html=1;strokeWidth=2;fillColor=#d5e8d4;strokeColor=#82b366;" vertex="1" parent="1">
          <mxGeometry x="381.3" y="559" width="100" height="50" as="geometry" />
        </mxCell>
        <mxCell id="22nm3eZFs8TaVSW6O3Qv-33" value="&lt;font style=&quot;font-size: 14px;&quot;&gt;&lt;b&gt;Trackers&lt;/b&gt;&lt;/font&gt;" style="rounded=0;whiteSpace=wrap;html=1;strokeWidth=2;fillColor=#d5e8d4;strokeColor=#82b366;" vertex="1" parent="1">
          <mxGeometry x="371.3" y="549" width="100" height="50" as="geometry" />
        </mxCell>
        <mxCell id="22nm3eZFs8TaVSW6O3Qv-35" value="" style="image;points=[];aspect=fixed;html=1;align=center;shadow=0;dashed=0;image=img/lib/allied_telesis/computer_and_terminals/Server_Desktop.svg;fillColor=#d5e8d4;strokeColor=#82b366;" vertex="1" parent="1">
          <mxGeometry x="360" y="590" width="22.88" height="29" as="geometry" />
        </mxCell>
        <mxCell id="22nm3eZFs8TaVSW6O3Qv-37" value="&lt;font style=&quot;font-size: 14px;&quot;&gt;Trackers&lt;/font&gt;" style="rounded=0;whiteSpace=wrap;html=1;strokeWidth=2;fillColor=#d5e8d4;strokeColor=#82b366;" vertex="1" parent="1">
          <mxGeometry x="650" y="569" width="100" height="50" as="geometry" />
        </mxCell>
        <mxCell id="22nm3eZFs8TaVSW6O3Qv-38" value="&lt;font style=&quot;font-size: 14px;&quot;&gt;Trackers&lt;/font&gt;" style="rounded=0;whiteSpace=wrap;html=1;strokeWidth=2;fillColor=#d5e8d4;strokeColor=#82b366;" vertex="1" parent="1">
          <mxGeometry x="640" y="559" width="100" height="50" as="geometry" />
        </mxCell>
        <mxCell id="22nm3eZFs8TaVSW6O3Qv-39" value="&lt;font style=&quot;font-size: 14px;&quot;&gt;Storages&lt;/font&gt;" style="rounded=0;whiteSpace=wrap;html=1;strokeWidth=2;fillColor=#d5e8d4;strokeColor=#82b366;" vertex="1" parent="1">
          <mxGeometry x="630" y="549" width="100" height="50" as="geometry" />
        </mxCell>
        <mxCell id="22nm3eZFs8TaVSW6O3Qv-40" value="&lt;font style=&quot;font-size: 14px;&quot;&gt;&lt;b&gt;Storages&lt;/b&gt;&lt;/font&gt;" style="rounded=0;whiteSpace=wrap;html=1;strokeWidth=2;fillColor=#d5e8d4;strokeColor=#82b366;" vertex="1" parent="1">
          <mxGeometry x="620" y="539" width="100" height="50" as="geometry" />
        </mxCell>
        <mxCell id="22nm3eZFs8TaVSW6O3Qv-42" value="" style="image;points=[];aspect=fixed;html=1;align=center;shadow=0;dashed=0;image=img/lib/allied_telesis/computer_and_terminals/Server_Desktop.svg;fillColor=#ffe6cc;strokeColor=#d79b00;" vertex="1" parent="1">
          <mxGeometry x="135" y="486.35" width="22.6" height="28.65" as="geometry" />
        </mxCell>
        <mxCell id="22nm3eZFs8TaVSW6O3Qv-43" value="" style="image;points=[];aspect=fixed;html=1;align=center;shadow=0;dashed=0;image=img/lib/allied_telesis/computer_and_terminals/Server_Desktop.svg;fillColor=#dae8fc;strokeColor=#6c8ebf;" vertex="1" parent="1">
          <mxGeometry x="135" y="288.67" width="18.94" height="24" as="geometry" />
        </mxCell>
        <mxCell id="22nm3eZFs8TaVSW6O3Qv-44" value="" style="image;points=[];aspect=fixed;html=1;align=center;shadow=0;dashed=0;image=img/lib/allied_telesis/computer_and_terminals/Server_Desktop.svg;fillColor=#dae8fc;strokeColor=#6c8ebf;" vertex="1" parent="1">
          <mxGeometry x="300" y="198.01" width="19.72" height="24.99" as="geometry" />
        </mxCell>
        <mxCell id="22nm3eZFs8TaVSW6O3Qv-47" value="" style="image;points=[];aspect=fixed;html=1;align=center;shadow=0;dashed=0;image=img/lib/allied_telesis/computer_and_terminals/Server_Desktop.svg;fillColor=#dae8fc;strokeColor=#6c8ebf;" vertex="1" parent="1">
          <mxGeometry x="453.43" y="257" width="17.87" height="22.65" as="geometry" />
        </mxCell>
        <mxCell id="22nm3eZFs8TaVSW6O3Qv-49" value="" style="image;points=[];aspect=fixed;html=1;align=center;shadow=0;dashed=0;image=img/lib/allied_telesis/computer_and_terminals/Server_Desktop.svg;fillColor=#dae8fc;strokeColor=#6c8ebf;" vertex="1" parent="1">
          <mxGeometry x="595" y="380" width="17.87" height="22.65" as="geometry" />
        </mxCell>
        <mxCell id="22nm3eZFs8TaVSW6O3Qv-50" value="" style="curved=1;endArrow=classic;html=1;rounded=0;strokeWidth=2;entryX=-0.04;entryY=0.981;entryDx=0;entryDy=0;entryPerimeter=0;fillColor=#d5e8d4;strokeColor=#82b366;" edge="1" parent="1">
          <mxGeometry width="50" height="50" relative="1" as="geometry">
            <mxPoint x="495" y="579" as="sourcePoint" />
            <mxPoint x="598.296" y="556.9739999999999" as="targetPoint" />
            <Array as="points">
              <mxPoint x="502" y="559" />
              <mxPoint x="550" y="539" />
            </Array>
          </mxGeometry>
        </mxCell>
        <mxCell id="22nm3eZFs8TaVSW6O3Qv-56" value="" style="curved=1;endArrow=classic;html=1;rounded=0;strokeWidth=2;fillColor=#d5e8d4;strokeColor=#82b366;" edge="1" parent="1">
          <mxGeometry width="50" height="50" relative="1" as="geometry">
            <mxPoint x="469" y="384" as="sourcePoint" />
            <mxPoint x="388" y="547" as="targetPoint" />
            <Array as="points">
              <mxPoint x="409" y="448" />
            </Array>
          </mxGeometry>
        </mxCell>
        <mxCell id="22nm3eZFs8TaVSW6O3Qv-57" value="" style="curved=1;endArrow=classic;html=1;rounded=0;strokeWidth=2;fillColor=#d5e8d4;strokeColor=#82b366;" edge="1" parent="1">
          <mxGeometry width="50" height="50" relative="1" as="geometry">
            <mxPoint x="402" y="543" as="sourcePoint" />
            <mxPoint x="485" y="383" as="targetPoint" />
            <Array as="points">
              <mxPoint x="435" y="433" />
            </Array>
          </mxGeometry>
        </mxCell>
        <mxCell id="22nm3eZFs8TaVSW6O3Qv-58" value="" style="curved=1;endArrow=classic;html=1;rounded=0;strokeWidth=2;exitX=-0.039;exitY=1.019;exitDx=0;exitDy=0;exitPerimeter=0;fillColor=#d5e8d4;strokeColor=#82b366;" edge="1" parent="1" source="22nm3eZFs8TaVSW6O3Qv-8">
          <mxGeometry width="50" height="50" relative="1" as="geometry">
            <mxPoint x="518.7" y="385" as="sourcePoint" />
            <mxPoint x="468" y="545" as="targetPoint" />
            <Array as="points">
              <mxPoint x="500" y="450" />
            </Array>
          </mxGeometry>
        </mxCell>
        <mxCell id="22nm3eZFs8TaVSW6O3Qv-61" value="" style="curved=1;endArrow=classic;html=1;rounded=0;strokeWidth=2;exitX=0.5;exitY=0;exitDx=0;exitDy=0;fillColor=#d5e8d4;strokeColor=#82b366;" edge="1" parent="1" source="22nm3eZFs8TaVSW6O3Qv-40">
          <mxGeometry width="50" height="50" relative="1" as="geometry">
            <mxPoint x="768.6499999999993" y="536" as="sourcePoint" />
            <mxPoint x="643" y="438" as="targetPoint" />
            <Array as="points">
              <mxPoint x="690" y="470" />
            </Array>
          </mxGeometry>
        </mxCell>
        <mxCell id="22nm3eZFs8TaVSW6O3Qv-62" value="" style="curved=1;endArrow=classic;html=1;rounded=0;strokeWidth=2;entryX=-0.039;entryY=1.019;entryDx=0;entryDy=0;entryPerimeter=0;fillColor=#d5e8d4;strokeColor=#82b366;" edge="1" parent="1">
          <mxGeometry width="50" height="50" relative="1" as="geometry">
            <mxPoint x="478" y="553" as="sourcePoint" />
            <mxPoint x="608.6000000000001" y="440.24" as="targetPoint" />
            <Array as="points">
              <mxPoint x="510" y="470" />
            </Array>
          </mxGeometry>
        </mxCell>
        <mxCell id="22nm3eZFs8TaVSW6O3Qv-63" value="" style="curved=1;endArrow=classic;html=1;rounded=0;strokeWidth=2;exitX=-0.039;exitY=1.019;exitDx=0;exitDy=0;exitPerimeter=0;fillColor=#d5e8d4;strokeColor=#82b366;" edge="1" parent="1">
          <mxGeometry width="50" height="50" relative="1" as="geometry">
            <mxPoint x="527.5" y="380.13" as="sourcePoint" />
            <mxPoint x="642" y="534" as="targetPoint" />
            <Array as="points">
              <mxPoint x="537.5" y="470.13" />
            </Array>
          </mxGeometry>
        </mxCell>
        <mxCell id="22nm3eZFs8TaVSW6O3Qv-64" value="" style="curved=1;endArrow=classic;html=1;rounded=0;strokeWidth=2;entryX=-0.04;entryY=0.981;entryDx=0;entryDy=0;entryPerimeter=0;fillColor=#d5e8d4;strokeColor=#82b366;" edge="1" parent="1">
          <mxGeometry width="50" height="50" relative="1" as="geometry">
            <mxPoint x="599.9999999999995" y="573" as="sourcePoint" />
            <mxPoint x="496.9999999999996" y="595" as="targetPoint" />
            <Array as="points">
              <mxPoint x="592.9999999999995" y="593" />
              <mxPoint x="544.9999999999995" y="613" />
            </Array>
          </mxGeometry>
        </mxCell>
        <mxCell id="22nm3eZFs8TaVSW6O3Qv-65" value="" style="image;points=[];aspect=fixed;html=1;align=center;shadow=0;dashed=0;image=img/lib/allied_telesis/computer_and_terminals/Server_Desktop.svg;fillColor=#d5e8d4;strokeColor=#82b366;" vertex="1" parent="1">
          <mxGeometry x="706.1" y="516.03" width="33.9" height="42.97" as="geometry" />
        </mxCell>
        <mxCell id="22nm3eZFs8TaVSW6O3Qv-66" value="" style="curved=1;endArrow=classic;html=1;rounded=0;strokeWidth=1;fillColor=#f8cecc;strokeColor=#b85450;dashed=1;" edge="1" parent="1">
          <mxGeometry width="50" height="50" relative="1" as="geometry">
            <mxPoint x="850" y="383" as="sourcePoint" />
            <mxPoint x="542" y="308" as="targetPoint" />
            <Array as="points">
              <mxPoint x="820" y="320" />
            </Array>
          </mxGeometry>
        </mxCell>
        <mxCell id="22nm3eZFs8TaVSW6O3Qv-67" value="&lt;font style=&quot;font-size: 14px;&quot;&gt;&lt;b&gt;MySQL&lt;/b&gt;&lt;/font&gt;" style="shape=cylinder3;whiteSpace=wrap;html=1;boundedLbl=1;backgroundOutline=1;size=15;strokeWidth=2;fillColor=#f8cecc;strokeColor=#b85450;" vertex="1" parent="1">
          <mxGeometry x="780" y="170" width="70" height="93" as="geometry" />
        </mxCell>
        <mxCell id="22nm3eZFs8TaVSW6O3Qv-68" value="&lt;font style=&quot;font-size: 14px;&quot;&gt;&lt;b&gt;Redis&lt;/b&gt;&lt;/font&gt;" style="rounded=0;whiteSpace=wrap;html=1;strokeWidth=2;fillColor=#f8cecc;strokeColor=#b85450;" vertex="1" parent="1">
          <mxGeometry x="780" y="389" width="100" height="50" as="geometry" />
        </mxCell>
        <mxCell id="22nm3eZFs8TaVSW6O3Qv-69" value="" style="endArrow=classic;html=1;rounded=0;endSize=6;strokeWidth=1;fillColor=#f8cecc;strokeColor=#b85450;dashed=1;" edge="1" parent="1">
          <mxGeometry width="50" height="50" relative="1" as="geometry">
            <mxPoint x="700" y="420" as="sourcePoint" />
            <mxPoint x="780" y="420" as="targetPoint" />
          </mxGeometry>
        </mxCell>
        <mxCell id="22nm3eZFs8TaVSW6O3Qv-70" value="" style="endArrow=none;html=1;rounded=0;endSize=6;strokeWidth=1;startArrow=classic;startFill=1;endFill=1;fillColor=#f8cecc;strokeColor=#b85450;dashed=1;" edge="1" parent="1">
          <mxGeometry width="50" height="50" relative="1" as="geometry">
            <mxPoint x="700" y="430" as="sourcePoint" />
            <mxPoint x="780" y="430" as="targetPoint" />
          </mxGeometry>
        </mxCell>
        <mxCell id="22nm3eZFs8TaVSW6O3Qv-78" value="" style="curved=1;endArrow=classic;html=1;rounded=0;strokeWidth=1;fillColor=#f8cecc;strokeColor=#b85450;dashed=1;" edge="1" parent="1">
          <mxGeometry width="50" height="50" relative="1" as="geometry">
            <mxPoint x="543" y="362" as="sourcePoint" />
            <mxPoint x="779" y="396" as="targetPoint" />
            <Array as="points">
              <mxPoint x="684" y="358" />
            </Array>
          </mxGeometry>
        </mxCell>
        <mxCell id="22nm3eZFs8TaVSW6O3Qv-79" value="" style="curved=1;endArrow=classic;html=1;rounded=0;strokeWidth=1;fillColor=#f8cecc;strokeColor=#b85450;dashed=1;" edge="1" parent="1">
          <mxGeometry width="50" height="50" relative="1" as="geometry">
            <mxPoint x="778" y="403" as="sourcePoint" />
            <mxPoint x="541" y="370" as="targetPoint" />
            <Array as="points">
              <mxPoint x="680" y="369" />
            </Array>
          </mxGeometry>
        </mxCell>
        <mxCell id="22nm3eZFs8TaVSW6O3Qv-81" value="" style="curved=1;endArrow=classic;html=1;rounded=0;strokeWidth=1;fillColor=#f8cecc;strokeColor=#b85450;dashed=1;" edge="1" parent="1">
          <mxGeometry width="50" height="50" relative="1" as="geometry">
            <mxPoint x="541" y="299" as="sourcePoint" />
            <mxPoint x="864" y="387" as="targetPoint" />
            <Array as="points">
              <mxPoint x="830" y="306" />
            </Array>
          </mxGeometry>
        </mxCell>
        <mxCell id="22nm3eZFs8TaVSW6O3Qv-82" value="" style="endArrow=classic;html=1;rounded=0;endSize=6;strokeWidth=2;entryX=0;entryY=0.25;entryDx=0;entryDy=0;fillColor=#dae8fc;strokeColor=#6c8ebf;" edge="1" parent="1" target="22nm3eZFs8TaVSW6O3Qv-8">
          <mxGeometry width="50" height="50" relative="1" as="geometry">
            <mxPoint x="371.3" y="403" as="sourcePoint" />
            <mxPoint x="461.3" y="403" as="targetPoint" />
          </mxGeometry>
        </mxCell>
        <mxCell id="22nm3eZFs8TaVSW6O3Qv-83" value="" style="endArrow=none;html=1;rounded=0;endSize=6;strokeWidth=2;entryX=0;entryY=0.75;entryDx=0;entryDy=0;startArrow=classic;startFill=1;endFill=1;fillColor=#dae8fc;strokeColor=#6c8ebf;" edge="1" parent="1" target="22nm3eZFs8TaVSW6O3Qv-8">
          <mxGeometry width="50" height="50" relative="1" as="geometry">
            <mxPoint x="371.3" y="423" as="sourcePoint" />
            <mxPoint x="461.3" y="423" as="targetPoint" />
          </mxGeometry>
        </mxCell>
        <mxCell id="22nm3eZFs8TaVSW6O3Qv-86" value="" style="endArrow=classic;html=1;rounded=0;endSize=6;strokeWidth=2;fillColor=#dae8fc;strokeColor=#6c8ebf;" edge="1" parent="1">
          <mxGeometry width="50" height="50" relative="1" as="geometry">
            <mxPoint x="240" y="309.58" as="sourcePoint" />
            <mxPoint x="310" y="310" as="targetPoint" />
          </mxGeometry>
        </mxCell>
        <mxCell id="22nm3eZFs8TaVSW6O3Qv-87" value="" style="endArrow=none;html=1;rounded=0;endSize=6;strokeWidth=2;startArrow=classic;startFill=1;endFill=1;fillColor=#dae8fc;strokeColor=#6c8ebf;" edge="1" parent="1">
          <mxGeometry width="50" height="50" relative="1" as="geometry">
            <mxPoint x="240" y="339.58" as="sourcePoint" />
            <mxPoint x="310" y="340" as="targetPoint" />
          </mxGeometry>
        </mxCell>
        <mxCell id="22nm3eZFs8TaVSW6O3Qv-12" value="" style="endArrow=classic;html=1;rounded=0;endSize=6;strokeWidth=2;fillColor=#ffe6cc;strokeColor=#d79b00;" edge="1" parent="1">
          <mxGeometry width="50" height="50" relative="1" as="geometry">
            <mxPoint x="170" y="490" as="sourcePoint" />
            <mxPoint x="170" y="350" as="targetPoint" />
          </mxGeometry>
        </mxCell>
        <mxCell id="22nm3eZFs8TaVSW6O3Qv-94" value="&lt;font face=&quot;Times New Roman&quot; style=&quot;font-size: 18px; color: light-dark(rgb(214, 157, 0), rgb(237, 237, 237));&quot;&gt;&lt;b style=&quot;&quot;&gt;Web&lt;/b&gt;&lt;/font&gt;&lt;div&gt;&lt;font face=&quot;Times New Roman&quot; style=&quot;font-size: 18px; color: light-dark(rgb(214, 157, 0), rgb(237, 237, 237));&quot;&gt;&lt;b style=&quot;&quot;&gt;Server&lt;/b&gt;&lt;/font&gt;&lt;/div&gt;" style="text;html=1;align=left;verticalAlign=middle;whiteSpace=wrap;rounded=0;" vertex="1" parent="1">
          <mxGeometry x="254" y="501" width="60" height="32" as="geometry" />
        </mxCell>
        <mxCell id="22nm3eZFs8TaVSW6O3Qv-95" value="&lt;font style=&quot;color: light-dark(rgb(108, 142, 191), rgb(150, 101, 0)); font-size: 48px;&quot; face=&quot;Times New Roman&quot;&gt;&lt;b style=&quot;&quot;&gt;CGI&lt;/b&gt;&lt;/font&gt;" style="text;html=1;align=left;verticalAlign=middle;whiteSpace=wrap;rounded=0;" vertex="1" parent="1">
          <mxGeometry x="130" y="183" width="100" height="40" as="geometry" />
        </mxCell>
        <mxCell id="22nm3eZFs8TaVSW6O3Qv-96" value="&lt;font style=&quot;font-size: 32px; color: light-dark(rgb(130, 179, 102), rgb(150, 101, 0));&quot; face=&quot;Times New Roman&quot;&gt;&lt;b style=&quot;&quot;&gt;FastDFS&lt;/b&gt;&lt;/font&gt;" style="text;html=1;align=center;verticalAlign=middle;whiteSpace=wrap;rounded=0;" vertex="1" parent="1">
          <mxGeometry x="505" y="610" width="100" height="40" as="geometry" />
        </mxCell>
        <mxCell id="22nm3eZFs8TaVSW6O3Qv-97" value="&lt;font style=&quot;color: light-dark(rgb(184, 84, 80), rgb(237, 237, 237)); font-size: 22px;&quot; face=&quot;Times New Roman&quot;&gt;&lt;b style=&quot;&quot;&gt;Meta&lt;/b&gt;&lt;/font&gt;&lt;div&gt;&lt;font style=&quot;color: light-dark(rgb(184, 84, 80), rgb(237, 237, 237)); font-size: 22px;&quot; face=&quot;Times New Roman&quot;&gt;&lt;b style=&quot;&quot;&gt;Storage&lt;/b&gt;&lt;/font&gt;&lt;/div&gt;" style="text;html=1;align=center;verticalAlign=middle;whiteSpace=wrap;rounded=0;" vertex="1" parent="1">
          <mxGeometry x="810" y="272.67999999999995" width="120" height="70" as="geometry" />
        </mxCell>
        <mxCell id="22nm3eZFs8TaVSW6O3Qv-99" value="&lt;font face=&quot;Times New Roman&quot;&gt;&lt;i&gt;Request&lt;/i&gt;&lt;/font&gt;" style="text;html=1;align=center;verticalAlign=middle;whiteSpace=wrap;rounded=0;rotation=-90;" vertex="1" parent="1">
          <mxGeometry x="130" y="571" width="40" height="10" as="geometry" />
        </mxCell>
        <mxCell id="22nm3eZFs8TaVSW6O3Qv-101" value="&lt;font face=&quot;Times New Roman&quot;&gt;&lt;i&gt;Request&lt;/i&gt;&lt;/font&gt;" style="text;html=1;align=center;verticalAlign=middle;whiteSpace=wrap;rounded=0;rotation=-90;" vertex="1" parent="1">
          <mxGeometry x="141" y="409" width="40" height="10" as="geometry" />
        </mxCell>
        <mxCell id="22nm3eZFs8TaVSW6O3Qv-102" value="&lt;font face=&quot;Times New Roman&quot;&gt;&lt;i&gt;File data&lt;/i&gt;&lt;/font&gt;" style="text;html=1;align=center;verticalAlign=middle;whiteSpace=wrap;rounded=0;rotation=38.3;" vertex="1" parent="1">
          <mxGeometry x="585" y="490.66999999999996" width="50" height="20" as="geometry" />
        </mxCell>
        <mxCell id="22nm3eZFs8TaVSW6O3Qv-104" value="&lt;font face=&quot;Times New Roman&quot;&gt;&lt;i&gt;Request&lt;/i&gt;&lt;/font&gt;" style="text;html=1;align=center;verticalAlign=middle;whiteSpace=wrap;rounded=0;rotation=0;" vertex="1" parent="1">
          <mxGeometry x="252" y="294" width="40" height="14" as="geometry" />
        </mxCell>
        <mxCell id="22nm3eZFs8TaVSW6O3Qv-105" value="&lt;font face=&quot;Times New Roman&quot;&gt;&lt;i&gt;Request&lt;/i&gt;&lt;/font&gt;" style="text;html=1;align=center;verticalAlign=middle;whiteSpace=wrap;rounded=0;rotation=0;" vertex="1" parent="1">
          <mxGeometry x="393.9" y="204.65" width="40" height="14" as="geometry" />
        </mxCell>
        <mxCell id="22nm3eZFs8TaVSW6O3Qv-106" value="&lt;font face=&quot;Times New Roman&quot;&gt;&lt;i&gt;Request&lt;/i&gt;&lt;/font&gt;" style="text;html=1;align=center;verticalAlign=middle;whiteSpace=wrap;rounded=0;rotation=0;" vertex="1" parent="1">
          <mxGeometry x="393.9" y="268.65" width="40" height="14" as="geometry" />
        </mxCell>
        <mxCell id="22nm3eZFs8TaVSW6O3Qv-107" value="&lt;font face=&quot;Times New Roman&quot;&gt;&lt;i&gt;Request&lt;/i&gt;&lt;/font&gt;" style="text;html=1;align=center;verticalAlign=middle;whiteSpace=wrap;rounded=0;rotation=0;" vertex="1" parent="1">
          <mxGeometry x="393.9" y="333.32" width="40" height="14" as="geometry" />
        </mxCell>
        <mxCell id="22nm3eZFs8TaVSW6O3Qv-108" value="&lt;font face=&quot;Times New Roman&quot;&gt;&lt;i&gt;Request&lt;/i&gt;&lt;/font&gt;" style="text;html=1;align=center;verticalAlign=middle;whiteSpace=wrap;rounded=0;rotation=0;" vertex="1" parent="1">
          <mxGeometry x="393.9" y="389" width="40" height="14" as="geometry" />
        </mxCell>
        <mxCell id="22nm3eZFs8TaVSW6O3Qv-109" value="&lt;font face=&quot;Times New Roman&quot;&gt;&lt;i&gt;Reqly&lt;/i&gt;&lt;/font&gt;" style="text;html=1;align=center;verticalAlign=middle;whiteSpace=wrap;rounded=0;rotation=-90;" vertex="1" parent="1">
          <mxGeometry x="208" y="559" width="40" height="20" as="geometry" />
        </mxCell>
        <mxCell id="22nm3eZFs8TaVSW6O3Qv-110" value="&lt;font face=&quot;Times New Roman&quot;&gt;&lt;i&gt;Reqly&lt;/i&gt;&lt;/font&gt;" style="text;html=1;align=center;verticalAlign=middle;whiteSpace=wrap;rounded=0;rotation=-90;" vertex="1" parent="1">
          <mxGeometry x="200" y="404" width="40" height="20" as="geometry" />
        </mxCell>
        <mxCell id="22nm3eZFs8TaVSW6O3Qv-112" value="&lt;font face=&quot;Times New Roman&quot;&gt;&lt;i&gt;Reqly&lt;/i&gt;&lt;/font&gt;" style="text;html=1;align=center;verticalAlign=middle;whiteSpace=wrap;rounded=0;rotation=0;" vertex="1" parent="1">
          <mxGeometry x="252" y="338" width="40" height="20" as="geometry" />
        </mxCell>
        <mxCell id="22nm3eZFs8TaVSW6O3Qv-114" value="&lt;font face=&quot;Times New Roman&quot;&gt;&lt;i&gt;Reqly&lt;/i&gt;&lt;/font&gt;" style="text;html=1;align=center;verticalAlign=middle;whiteSpace=wrap;rounded=0;rotation=0;" vertex="1" parent="1">
          <mxGeometry x="393.9" y="239" width="40" height="15" as="geometry" />
        </mxCell>
        <mxCell id="22nm3eZFs8TaVSW6O3Qv-116" value="&lt;font face=&quot;Times New Roman&quot;&gt;&lt;i&gt;Reqly&lt;/i&gt;&lt;/font&gt;" style="text;html=1;align=center;verticalAlign=middle;whiteSpace=wrap;rounded=0;rotation=0;" vertex="1" parent="1">
          <mxGeometry x="393.9" y="303.67" width="40" height="15" as="geometry" />
        </mxCell>
        <mxCell id="22nm3eZFs8TaVSW6O3Qv-117" value="&lt;font face=&quot;Times New Roman&quot;&gt;&lt;i&gt;Reqly&lt;/i&gt;&lt;/font&gt;" style="text;html=1;align=center;verticalAlign=middle;whiteSpace=wrap;rounded=0;rotation=0;" vertex="1" parent="1">
          <mxGeometry x="390" y="367" width="40" height="15" as="geometry" />
        </mxCell>
        <mxCell id="22nm3eZFs8TaVSW6O3Qv-118" value="&lt;font face=&quot;Times New Roman&quot;&gt;&lt;i&gt;Reqly&lt;/i&gt;&lt;/font&gt;" style="text;html=1;align=center;verticalAlign=middle;whiteSpace=wrap;rounded=0;rotation=0;" vertex="1" parent="1">
          <mxGeometry x="390" y="422" width="40" height="15" as="geometry" />
        </mxCell>
        <mxCell id="22nm3eZFs8TaVSW6O3Qv-119" value="&lt;font face=&quot;Times New Roman&quot;&gt;&lt;i&gt;Request&lt;/i&gt;&lt;/font&gt;" style="text;html=1;align=center;verticalAlign=middle;whiteSpace=wrap;rounded=0;rotation=-75;" vertex="1" parent="1">
          <mxGeometry x="371.3" y="491" width="40" height="10" as="geometry" />
        </mxCell>
        <mxCell id="22nm3eZFs8TaVSW6O3Qv-120" value="&lt;font face=&quot;Times New Roman&quot;&gt;&lt;i&gt;File&lt;/i&gt;&lt;/font&gt;&lt;div&gt;&lt;i style=&quot;font-family: &amp;quot;Times New Roman&amp;quot;; background-color: transparent; color: light-dark(rgb(0, 0, 0), rgb(255, 255, 255));&quot;&gt;data&lt;/i&gt;&lt;/div&gt;" style="text;html=1;align=center;verticalAlign=middle;whiteSpace=wrap;rounded=0;rotation=0;" vertex="1" parent="1">
          <mxGeometry x="664" y="500.12999999999994" width="50" height="20" as="geometry" />
        </mxCell>
        <mxCell id="22nm3eZFs8TaVSW6O3Qv-121" value="&lt;font face=&quot;Times New Roman&quot;&gt;&lt;i&gt;Request&lt;/i&gt;&lt;/font&gt;" style="text;html=1;align=center;verticalAlign=middle;whiteSpace=wrap;rounded=0;rotation=-57.4;" vertex="1" parent="1">
          <mxGeometry x="465" y="486.35" width="40" height="10" as="geometry" />
        </mxCell>
        <mxCell id="22nm3eZFs8TaVSW6O3Qv-124" value="&lt;div style=&quot;line-height: 100%;&quot;&gt;&lt;font face=&quot;Times New Roman&quot;&gt;&lt;i&gt;Storage&amp;nbsp;&lt;/i&gt;&lt;/font&gt;&lt;div&gt;&lt;font face=&quot;Times New Roman&quot;&gt;&lt;i&gt;host info&lt;/i&gt;&lt;/font&gt;&lt;/div&gt;&lt;/div&gt;" style="text;html=1;align=center;verticalAlign=middle;whiteSpace=wrap;rounded=0;rotation=-71.7;" vertex="1" parent="1">
          <mxGeometry x="393.9" y="512.13" width="58.7" height="10" as="geometry" />
        </mxCell>
        <mxCell id="22nm3eZFs8TaVSW6O3Qv-127" value="&lt;div style=&quot;line-height: 100%;&quot;&gt;&lt;font face=&quot;Times New Roman&quot;&gt;&lt;i&gt;Query&lt;/i&gt;&lt;/font&gt;&lt;/div&gt;" style="text;html=1;align=center;verticalAlign=middle;whiteSpace=wrap;rounded=0;rotation=-15;" vertex="1" parent="1">
          <mxGeometry x="517" y="543" width="40" height="20" as="geometry" />
        </mxCell>
        <mxCell id="22nm3eZFs8TaVSW6O3Qv-128" value="&lt;div style=&quot;line-height: 100%;&quot;&gt;&lt;font face=&quot;Times New Roman&quot;&gt;&lt;i&gt;Storage&amp;nbsp;&lt;/i&gt;&lt;/font&gt;&lt;div&gt;&lt;font face=&quot;Times New Roman&quot;&gt;&lt;i&gt;host info&lt;/i&gt;&lt;/font&gt;&lt;/div&gt;&lt;/div&gt;" style="text;html=1;align=center;verticalAlign=middle;whiteSpace=wrap;rounded=0;rotation=-48.7;" vertex="1" parent="1">
          <mxGeometry x="500" y="492" width="58.7" height="10" as="geometry" />
        </mxCell>
        <mxCell id="22nm3eZFs8TaVSW6O3Qv-131" value="&lt;div style=&quot;line-height: 100%;&quot;&gt;&lt;font face=&quot;Times New Roman&quot;&gt;&lt;i&gt;Result&lt;/i&gt;&lt;/font&gt;&lt;/div&gt;" style="text;html=1;align=center;verticalAlign=middle;whiteSpace=wrap;rounded=0;rotation=0;" vertex="1" parent="1">
          <mxGeometry x="527" y="592" width="40" height="11" as="geometry" />
        </mxCell>
        <mxCell id="22nm3eZFs8TaVSW6O3Qv-132" value="&lt;font face=&quot;Times New Roman&quot;&gt;&lt;i&gt;User info&lt;/i&gt;&lt;/font&gt;" style="text;html=1;align=center;verticalAlign=middle;whiteSpace=wrap;rounded=0;rotation=0;" vertex="1" parent="1">
          <mxGeometry x="555" y="204.65" width="60" height="14" as="geometry" />
        </mxCell>
        <mxCell id="22nm3eZFs8TaVSW6O3Qv-135" value="&lt;font face=&quot;Times New Roman&quot;&gt;&lt;i&gt;Reqly&lt;/i&gt;&lt;/font&gt;" style="text;html=1;align=center;verticalAlign=middle;whiteSpace=wrap;rounded=0;rotation=0;" vertex="1" parent="1">
          <mxGeometry x="650" y="228" width="40" height="15" as="geometry" />
        </mxCell>
        <mxCell id="22nm3eZFs8TaVSW6O3Qv-136" value="&lt;font face=&quot;Times New Roman&quot;&gt;&lt;i&gt;User info&lt;/i&gt;&lt;/font&gt;" style="text;html=1;align=center;verticalAlign=middle;whiteSpace=wrap;rounded=0;rotation=-8.1;" vertex="1" parent="1">
          <mxGeometry x="604" y="260" width="60" height="14" as="geometry" />
        </mxCell>
        <mxCell id="22nm3eZFs8TaVSW6O3Qv-137" value="&lt;font face=&quot;Times New Roman&quot;&gt;&lt;i&gt;Reqly&lt;/i&gt;&lt;/font&gt;" style="text;html=1;align=center;verticalAlign=middle;whiteSpace=wrap;rounded=0;rotation=-15;" vertex="1" parent="1">
          <mxGeometry x="691" y="268.65000000000003" width="40" height="15" as="geometry" />
        </mxCell>
        <mxCell id="22nm3eZFs8TaVSW6O3Qv-141" value="&lt;font style=&quot;font-size: 10px;&quot; face=&quot;Times New Roman&quot;&gt;&lt;i style=&quot;&quot;&gt;Session Token&lt;/i&gt;&lt;/font&gt;" style="text;html=1;align=center;verticalAlign=middle;whiteSpace=wrap;rounded=0;rotation=0.9;" vertex="1" parent="1">
          <mxGeometry x="545" y="367" width="70" height="15" as="geometry" />
        </mxCell>
        <mxCell id="22nm3eZFs8TaVSW6O3Qv-142" value="" style="image;points=[];aspect=fixed;html=1;align=center;shadow=0;dashed=0;image=img/lib/allied_telesis/computer_and_terminals/Server_Desktop.svg;fillColor=#dae8fc;strokeColor=#6c8ebf;" vertex="1" parent="1">
          <mxGeometry x="840" y="176" width="22.6" height="28.65" as="geometry" />
        </mxCell>
        <mxCell id="22nm3eZFs8TaVSW6O3Qv-143" value="" style="image;points=[];aspect=fixed;html=1;align=center;shadow=0;dashed=0;image=img/lib/allied_telesis/computer_and_terminals/Server_Desktop.svg;fillColor=#dae8fc;strokeColor=#6c8ebf;" vertex="1" parent="1">
          <mxGeometry x="870" y="424" width="22.6" height="28.65" as="geometry" />
        </mxCell>
        <mxCell id="22nm3eZFs8TaVSW6O3Qv-147" value="&lt;i&gt;&lt;b&gt;*带有服务器标识的都可以部署在单独的服务器，以满足分布式及高负载的需求&lt;/b&gt;&lt;/i&gt;" style="text;html=1;align=center;verticalAlign=middle;whiteSpace=wrap;rounded=0;" vertex="1" parent="1">
          <mxGeometry x="780" y="690" width="120" height="162.49" as="geometry" />
        </mxCell>
        <mxCell id="22nm3eZFs8TaVSW6O3Qv-149" value="" style="image;points=[];aspect=fixed;html=1;align=center;shadow=0;dashed=0;image=img/lib/allied_telesis/computer_and_terminals/Server_Desktop.svg;fillColor=#dae8fc;strokeColor=#6c8ebf;" vertex="1" parent="1">
          <mxGeometry x="452.59999999999997" y="191.67" width="17.87" height="22.65" as="geometry" />
        </mxCell>
        <mxCell id="22nm3eZFs8TaVSW6O3Qv-150" value="" style="image;points=[];aspect=fixed;html=1;align=center;shadow=0;dashed=0;image=img/lib/allied_telesis/computer_and_terminals/Server_Desktop.svg;fillColor=#dae8fc;strokeColor=#6c8ebf;" vertex="1" parent="1">
          <mxGeometry x="452.6" y="321" width="17.87" height="22.65" as="geometry" />
        </mxCell>
        <mxCell id="22nm3eZFs8TaVSW6O3Qv-153" value="" style="curved=1;endArrow=classic;html=1;rounded=0;strokeWidth=2;fillColor=#f8cecc;strokeColor=#b85450;" edge="1" parent="1">
          <mxGeometry width="50" height="50" relative="1" as="geometry">
            <mxPoint x="540" y="279.66999999999996" as="sourcePoint" />
            <mxPoint x="779" y="242" as="targetPoint" />
            <Array as="points">
              <mxPoint x="679" y="278.67" />
            </Array>
          </mxGeometry>
        </mxCell>
        <mxCell id="22nm3eZFs8TaVSW6O3Qv-154" value="" style="curved=1;endArrow=classic;html=1;rounded=0;strokeWidth=2;fillColor=#f8cecc;strokeColor=#b85450;" edge="1" parent="1">
          <mxGeometry width="50" height="50" relative="1" as="geometry">
            <mxPoint x="779" y="249.49" as="sourcePoint" />
            <mxPoint x="540" y="287.15999999999997" as="targetPoint" />
            <Array as="points">
              <mxPoint x="679" y="286.16" />
            </Array>
          </mxGeometry>
        </mxCell>
        <mxCell id="22nm3eZFs8TaVSW6O3Qv-157" value="" style="curved=1;endArrow=classic;html=1;rounded=0;strokeWidth=2;fillColor=#f8cecc;strokeColor=#b85450;" edge="1" parent="1">
          <mxGeometry width="50" height="50" relative="1" as="geometry">
            <mxPoint x="541" y="343.65" as="sourcePoint" />
            <mxPoint x="782" y="258" as="targetPoint" />
            <Array as="points">
              <mxPoint x="680" y="342.65000000000003" />
            </Array>
          </mxGeometry>
        </mxCell>
        <mxCell id="22nm3eZFs8TaVSW6O3Qv-158" value="" style="curved=1;endArrow=classic;html=1;rounded=0;strokeWidth=2;fillColor=#f8cecc;strokeColor=#b85450;" edge="1" parent="1">
          <mxGeometry width="50" height="50" relative="1" as="geometry">
            <mxPoint x="790" y="264" as="sourcePoint" />
            <mxPoint x="544" y="353.33" as="targetPoint" />
            <Array as="points">
              <mxPoint x="698" y="347" />
            </Array>
          </mxGeometry>
        </mxCell>
        <mxCell id="22nm3eZFs8TaVSW6O3Qv-159" value="" style="curved=1;endArrow=classic;html=1;rounded=0;strokeWidth=2;fillColor=#f8cecc;strokeColor=#b85450;" edge="1" parent="1">
          <mxGeometry width="50" height="50" relative="1" as="geometry">
            <mxPoint x="696" y="391" as="sourcePoint" />
            <mxPoint x="806" y="266" as="targetPoint" />
            <Array as="points">
              <mxPoint x="740" y="350" />
            </Array>
          </mxGeometry>
        </mxCell>
        <mxCell id="22nm3eZFs8TaVSW6O3Qv-160" value="" style="curved=1;endArrow=classic;html=1;rounded=0;strokeWidth=2;fillColor=#f8cecc;strokeColor=#b85450;" edge="1" parent="1">
          <mxGeometry width="50" height="50" relative="1" as="geometry">
            <mxPoint x="819" y="266" as="sourcePoint" />
            <mxPoint x="703" y="403" as="targetPoint" />
            <Array as="points">
              <mxPoint x="758.3" y="350" />
            </Array>
          </mxGeometry>
        </mxCell>
        <mxCell id="22nm3eZFs8TaVSW6O3Qv-162" value="&lt;div style=&quot;line-height: 80%;&quot;&gt;&lt;font style=&quot;font-size: 10px; line-height: 80%;&quot; face=&quot;Times New Roman&quot;&gt;&lt;i&gt;Session&lt;/i&gt;&lt;/font&gt;&lt;div&gt;&lt;font style=&quot;font-size: 10px; line-height: 80%;&quot; face=&quot;Times New Roman&quot;&gt;&lt;i&gt;Token&lt;/i&gt;&lt;/font&gt;&lt;/div&gt;&lt;/div&gt;" style="text;html=1;align=center;verticalAlign=middle;whiteSpace=wrap;rounded=0;rotation=15;" vertex="1" parent="1">
          <mxGeometry x="748" y="365.76" width="40" height="22.24" as="geometry" />
        </mxCell>
        <mxCell id="22nm3eZFs8TaVSW6O3Qv-163" value="&lt;font style=&quot;font-size: 10px;&quot; face=&quot;Times New Roman&quot;&gt;&lt;i style=&quot;&quot;&gt;Session Token&lt;/i&gt;&lt;/font&gt;" style="text;html=1;align=center;verticalAlign=middle;whiteSpace=wrap;rounded=0;rotation=0.9;" vertex="1" parent="1">
          <mxGeometry x="704.1" y="406" width="70" height="15" as="geometry" />
        </mxCell>
        <mxCell id="22nm3eZFs8TaVSW6O3Qv-164" value="&lt;font style=&quot;font-size: 10px;&quot; face=&quot;Times New Roman&quot;&gt;&lt;i style=&quot;&quot;&gt;Session Token&lt;/i&gt;&lt;/font&gt;" style="text;html=1;align=center;verticalAlign=middle;whiteSpace=wrap;rounded=0;rotation=0.9;" vertex="1" parent="1">
          <mxGeometry x="704.1" y="427.83" width="70" height="15" as="geometry" />
        </mxCell>
        <mxCell id="22nm3eZFs8TaVSW6O3Qv-166" value="&lt;font style=&quot;font-size: 10px;&quot; face=&quot;Times New Roman&quot;&gt;&lt;i style=&quot;&quot;&gt;Session Token&lt;/i&gt;&lt;/font&gt;" style="text;html=1;align=center;verticalAlign=middle;whiteSpace=wrap;rounded=0;rotation=4.3;" vertex="1" parent="1">
          <mxGeometry x="599" y="290.5" width="70" height="15" as="geometry" />
        </mxCell>
        <mxCell id="22nm3eZFs8TaVSW6O3Qv-168" value="&lt;div style=&quot;line-height: 80%;&quot;&gt;&lt;font style=&quot;font-size: 10px; line-height: 80%;&quot; face=&quot;Times New Roman&quot;&gt;&lt;i&gt;Session&lt;/i&gt;&lt;/font&gt;&lt;div&gt;&lt;font style=&quot;font-size: 10px; line-height: 80%;&quot; face=&quot;Times New Roman&quot;&gt;&lt;i&gt;Token&lt;/i&gt;&lt;/font&gt;&lt;/div&gt;&lt;/div&gt;" style="text;html=1;align=center;verticalAlign=middle;whiteSpace=wrap;rounded=0;rotation=32.9;" vertex="1" parent="1">
          <mxGeometry x="807" y="360" width="40" height="22.24" as="geometry" />
        </mxCell>
        <mxCell id="22nm3eZFs8TaVSW6O3Qv-170" value="" style="outlineConnect=0;dashed=0;verticalLabelPosition=bottom;verticalAlign=top;align=center;html=1;shape=mxgraph.aws3.internet_2;fillColor=#D2D3D3;gradientColor=none;" vertex="1" parent="1">
          <mxGeometry x="165.18" y="558.5" width="45.64" height="31" as="geometry" />
        </mxCell>
        <mxCell id="22nm3eZFs8TaVSW6O3Qv-171" value="&lt;font face=&quot;Times New Roman&quot;&gt;&lt;i&gt;File info&lt;/i&gt;&lt;/font&gt;" style="text;html=1;align=center;verticalAlign=middle;whiteSpace=wrap;rounded=0;rotation=-8.1;" vertex="1" parent="1">
          <mxGeometry x="568" y="324.68" width="60" height="14" as="geometry" />
        </mxCell>
        <mxCell id="22nm3eZFs8TaVSW6O3Qv-172" value="&lt;font face=&quot;Times New Roman&quot;&gt;&lt;i&gt;Reqly&lt;/i&gt;&lt;/font&gt;" style="text;html=1;align=center;verticalAlign=middle;whiteSpace=wrap;rounded=0;rotation=-55;" vertex="1" parent="1">
          <mxGeometry x="781" y="294.00000000000006" width="40" height="15" as="geometry" />
        </mxCell>
        <mxCell id="22nm3eZFs8TaVSW6O3Qv-173" value="&lt;font face=&quot;Times New Roman&quot;&gt;&lt;i&gt;File info&lt;/i&gt;&lt;/font&gt;" style="text;html=1;align=center;verticalAlign=middle;whiteSpace=wrap;rounded=0;rotation=-45;" vertex="1" parent="1">
          <mxGeometry x="691" y="346" width="60" height="14" as="geometry" />
        </mxCell>
        <mxCell id="22nm3eZFs8TaVSW6O3Qv-178" value="" style="group" vertex="1" connectable="0" parent="1">
          <mxGeometry x="595" y="681.25" width="119" height="171.24" as="geometry" />
        </mxCell>
        <mxCell id="22nm3eZFs8TaVSW6O3Qv-176" value="&lt;div style=&quot;line-height: 150%;&quot;&gt;&lt;b&gt;&lt;i&gt;&lt;font face=&quot;Times New Roman&quot;&gt;*Any component with a server identifier&amp;nbsp; &amp;nbsp; &amp;nbsp;&amp;nbsp;&lt;/font&gt;&lt;/i&gt;&lt;/b&gt;&lt;div&gt;&lt;b&gt;&lt;i&gt;&lt;font face=&quot;Times New Roman&quot;&gt;can be deployed on separate servers to meet distributed architecture and high-load requirements&lt;/font&gt;&lt;/i&gt;&lt;/b&gt;&lt;/div&gt;&lt;/div&gt;" style="text;html=1;align=center;verticalAlign=middle;whiteSpace=wrap;rounded=0;" vertex="1" parent="22nm3eZFs8TaVSW6O3Qv-178">
          <mxGeometry width="119" height="171.24" as="geometry" />
        </mxCell>
        <mxCell id="22nm3eZFs8TaVSW6O3Qv-177" value="" style="image;points=[];aspect=fixed;html=1;align=center;shadow=0;dashed=0;image=img/lib/allied_telesis/computer_and_terminals/Server_Desktop.svg;fillColor=#dae8fc;strokeColor=#6c8ebf;" vertex="1" parent="22nm3eZFs8TaVSW6O3Qv-178">
          <mxGeometry x="98" y="42.25" width="13.42" height="17" as="geometry" />
        </mxCell>
        <mxCell id="22nm3eZFs8TaVSW6O3Qv-186" value="" style="group" vertex="1" connectable="0" parent="1">
          <mxGeometry x="774" y="472" width="140" height="180" as="geometry" />
        </mxCell>
        <mxCell id="22nm3eZFs8TaVSW6O3Qv-183" value="&lt;div style=&quot;line-height: 150%;&quot;&gt;&lt;font face=&quot;Times New Roman&quot;&gt;&lt;b&gt;&lt;i&gt;*Любой компонент с&amp;nbsp; &amp;nbsp; &amp;nbsp; &amp;nbsp; может быть развернут на отдельных серверах для удовлетворения требований распределенной архитектуры и высокой нагрузки&lt;/i&gt;&lt;/b&gt;&lt;/font&gt;&lt;/div&gt;" style="text;html=1;align=center;verticalAlign=middle;whiteSpace=wrap;rounded=0;" vertex="1" parent="22nm3eZFs8TaVSW6O3Qv-186">
          <mxGeometry width="140" height="180" as="geometry" />
        </mxCell>
        <mxCell id="22nm3eZFs8TaVSW6O3Qv-185" value="" style="image;points=[];aspect=fixed;html=1;align=center;shadow=0;dashed=0;image=img/lib/allied_telesis/computer_and_terminals/Server_Desktop.svg;fillColor=#dae8fc;strokeColor=#6c8ebf;" vertex="1" parent="22nm3eZFs8TaVSW6O3Qv-186">
          <mxGeometry x="119" y="17.730000000000018" width="14.42" height="18.27" as="geometry" />
        </mxCell>
      </root>
    </mxGraphModel>
  </diagram>
</mxfile>
